<svg width="101" height="23" viewBox="0 0 101 23" fill="none" xmlns="http://www.w3.org/2000/svg">
<path d="M3.48056 22H0.803001L8.54732 0.90909H11.1837L18.928 22H16.2504L9.94789 4.24574H9.78311L3.48056 22ZM4.46919 13.7614H15.2618V16.027H4.46919V13.7614ZM33.0882 9.72443L30.9049 10.3423C30.7676 9.97846 30.5651 9.62488 30.2973 9.28161C30.0364 8.93146 29.6794 8.64311 29.2263 8.41655C28.7732 8.18999 28.193 8.0767 27.4859 8.0767C26.5178 8.0767 25.7111 8.29983 25.0658 8.74609C24.4273 9.18549 24.108 9.74503 24.108 10.4247C24.108 11.0289 24.3277 11.506 24.7671 11.8562C25.2065 12.2063 25.8931 12.4981 26.8268 12.7315L29.1748 13.3082C30.5891 13.6515 31.643 14.1767 32.3364 14.8839C33.0298 15.5842 33.3765 16.487 33.3765 17.5923C33.3765 18.4986 33.1156 19.3087 32.5938 20.0227C32.0789 20.7367 31.358 21.2997 30.4312 21.7116C29.5044 22.1236 28.4265 22.3295 27.1975 22.3295C25.5841 22.3295 24.2488 21.9794 23.1915 21.2791C22.1342 20.5788 21.4648 19.5559 21.1833 18.2102L23.4901 17.6335C23.7098 18.4848 24.1252 19.1233 24.7362 19.549C25.3541 19.9747 26.1608 20.1875 27.1563 20.1875C28.2892 20.1875 29.1885 19.9472 29.8545 19.4666C30.5273 18.9792 30.8637 18.3956 30.8637 17.7159C30.8637 17.1667 30.6715 16.7067 30.287 16.3359C29.9026 15.9583 29.3121 15.6768 28.5157 15.4915L25.8794 14.8736C24.4307 14.5303 23.3666 13.9982 22.6869 13.2773C22.0141 12.5496 21.6776 11.6399 21.6776 10.5483C21.6776 9.65578 21.9282 8.86624 22.4294 8.17969C22.9375 7.49313 23.6275 6.95419 24.4994 6.56285C25.3782 6.17152 26.3737 5.97585 27.4859 5.97585C29.0512 5.97585 30.2802 6.31913 31.1727 7.00568C32.0721 7.69223 32.7106 8.59848 33.0882 9.72443ZM48.2395 9.72443L46.0563 10.3423C45.919 9.97846 45.7164 9.62488 45.4487 9.28161C45.1878 8.93146 44.8308 8.64311 44.3777 8.41655C43.9245 8.18999 43.3444 8.0767 42.6373 8.0767C41.6692 8.0767 40.8625 8.29983 40.2172 8.74609C39.5787 9.18549 39.2594 9.74503 39.2594 10.4247C39.2594 11.0289 39.4791 11.506 39.9185 11.8562C40.3579 12.2063 41.0444 12.4981 41.9782 12.7315L44.3262 13.3082C45.7405 13.6515 46.7943 14.1767 47.4877 14.8839C48.1812 15.5842 48.5279 16.487 48.5279 17.5923C48.5279 18.4986 48.267 19.3087 47.7452 20.0227C47.2303 20.7367 46.5094 21.2997 45.5826 21.7116C44.6557 22.1236 43.5778 22.3295 42.3489 22.3295C40.7355 22.3295 39.4002 21.9794 38.3429 21.2791C37.2856 20.5788 36.6162 19.5559 36.3347 18.2102L38.6415 17.6335C38.8612 18.4848 39.2766 19.1233 39.8876 19.549C40.5055 19.9747 41.3122 20.1875 42.3077 20.1875C43.4405 20.1875 44.3399 19.9472 45.0059 19.4666C45.6787 18.9792 46.0151 18.3956 46.0151 17.7159C46.0151 17.1667 45.8229 16.7067 45.4384 16.3359C45.0539 15.9583 44.4635 15.6768 43.6671 15.4915L41.0307 14.8736C39.5821 14.5303 38.5179 13.9982 37.8382 13.2773C37.1654 12.5496 36.829 11.6399 36.829 10.5483C36.829 9.65578 37.0796 8.86624 37.5808 8.17969C38.0888 7.49313 38.7788 6.95419 39.6507 6.56285C40.5295 6.17152 41.525 5.97585 42.6373 5.97585C44.2026 5.97585 45.4315 6.31913 46.324 7.00568C47.2234 7.69223 47.8619 8.59848 48.2395 9.72443ZM52.1863 22V6.18182H54.6167V22H52.1863ZM53.4221 3.54545C52.9484 3.54545 52.5399 3.38411 52.1966 3.06143C51.8602 2.73875 51.692 2.35085 51.692 1.89773C51.692 1.4446 51.8602 1.0567 52.1966 0.734019C52.5399 0.41134 52.9484 0.25 53.4221 0.25C53.8959 0.25 54.3009 0.41134 54.6373 0.734019C54.9806 1.0567 55.1523 1.4446 55.1523 1.89773C55.1523 2.35085 54.9806 2.73875 54.6373 3.06143C54.3009 3.38411 53.8959 3.54545 53.4221 3.54545ZM61.4986 12.4844V22H59.0682V6.18182H61.4162V8.65341H61.6222C61.9929 7.85014 62.5559 7.20478 63.3111 6.71733C64.0663 6.22301 65.0412 5.97585 66.2358 5.97585C67.3068 5.97585 68.244 6.19555 69.0472 6.63494C69.8505 7.06747 70.4753 7.72656 70.9215 8.61222C71.3678 9.491 71.5909 10.6032 71.5909 11.9489V22H69.1605V12.1136C69.1605 10.871 68.8378 9.90294 68.1925 9.20952C67.5471 8.50923 66.6615 8.15909 65.5355 8.15909C64.7597 8.15909 64.0663 8.3273 63.4553 8.66371C62.8511 9.00012 62.3739 9.491 62.0238 10.1364C61.6737 10.7817 61.4986 11.5644 61.4986 12.4844ZM80.6869 22.3707C79.6845 22.3707 78.7748 22.1819 77.9578 21.8043C77.1408 21.4199 76.492 20.8672 76.0115 20.1463C75.5309 19.4186 75.2906 18.5398 75.2906 17.5099C75.2906 16.6037 75.4691 15.8691 75.8261 15.3061C76.1831 14.7363 76.6602 14.29 77.2575 13.9673C77.8548 13.6446 78.5139 13.4044 79.2348 13.2464C79.9626 13.0817 80.6937 12.9512 81.4284 12.8551C82.3895 12.7315 83.1688 12.6388 83.7661 12.5771C84.3702 12.5084 84.8096 12.3951 85.0843 12.2372C85.3657 12.0793 85.5065 11.8047 85.5065 11.4134V11.331C85.5065 10.3149 85.2284 9.52533 84.6723 8.96236C84.1231 8.39938 83.2889 8.1179 82.1698 8.1179C81.0096 8.1179 80.0999 8.37192 79.4408 8.87997C78.7817 9.38802 78.3183 9.9304 78.0505 10.5071L75.7437 9.68324C76.1556 8.72206 76.7049 7.97372 77.3914 7.43821C78.0848 6.89583 78.8401 6.51823 79.657 6.3054C80.4809 6.0857 81.291 5.97585 82.0874 5.97585C82.5955 5.97585 83.1791 6.03764 83.8382 6.16122C84.5041 6.27793 85.146 6.52166 85.7639 6.8924C86.3887 7.26314 86.907 7.82268 87.319 8.57102C87.7309 9.31937 87.9369 10.3217 87.9369 11.5781V22H85.5065V19.858H85.3829C85.2181 20.2012 84.9435 20.5685 84.559 20.9599C84.1746 21.3512 83.6631 21.6842 83.0246 21.9588C82.3861 22.2334 81.6069 22.3707 80.6869 22.3707ZM81.0576 20.1875C82.0188 20.1875 82.8289 19.9987 83.488 19.6211C84.154 19.2435 84.6552 18.756 84.9916 18.1587C85.3348 17.5614 85.5065 16.9332 85.5065 16.2741V14.0497C85.4035 14.1733 85.1769 14.2866 84.8268 14.3896C84.4835 14.4857 84.0853 14.5715 83.6322 14.647C83.1859 14.7157 82.75 14.7775 82.3243 14.8324C81.9055 14.8804 81.5657 14.9216 81.3048 14.956C80.6731 15.0384 80.0827 15.1722 79.5335 15.3576C78.9911 15.5361 78.5517 15.8073 78.2153 16.1712C77.8857 16.5282 77.721 17.0156 77.721 17.6335C77.721 18.478 78.0334 19.1165 78.6581 19.549C79.2897 19.9747 80.0896 20.1875 81.0576 20.1875ZM92.3729 22V6.18182H94.7209V8.57102H94.8857C95.174 7.78835 95.6958 7.15329 96.451 6.66584C97.2062 6.17838 98.0575 5.93466 99.005 5.93466C99.1835 5.93466 99.4066 5.93809 99.6744 5.94496C99.9421 5.95182 100.145 5.96212 100.282 5.97585V8.44744C100.2 8.42685 100.011 8.39595 99.7156 8.35476C99.4272 8.3067 99.1217 8.28267 98.799 8.28267C98.0301 8.28267 97.3435 8.44401 96.7393 8.76669C96.142 9.0825 95.6683 9.5219 95.3182 10.0849C94.9749 10.641 94.8033 11.276 94.8033 11.9901V22H92.3729Z" fill="white"/>
</svg>
