<svg width="73" height="23" viewBox="0 0 73 23" fill="none" xmlns="http://www.w3.org/2000/svg">
<path d="M0.807395 0.90909H3.85569L11.0233 18.4162H11.2705L18.4381 0.90909H21.4864V22H19.0972V5.97585H18.8912L12.3003 22H9.99348L3.40257 5.97585H3.1966V22H0.807395V0.90909ZM32.9098 22.3295C31.3856 22.3295 30.0709 21.9931 28.9655 21.3203C27.867 20.6406 27.0191 19.6932 26.4218 18.478C25.8314 17.2559 25.5362 15.8348 25.5362 14.2145C25.5362 12.5942 25.8314 11.1662 26.4218 9.9304C27.0191 8.68774 27.8499 7.7197 28.914 7.02628C29.985 6.32599 31.2346 5.97585 32.6626 5.97585C33.4865 5.97585 34.3 6.11316 35.1033 6.38778C35.9066 6.6624 36.6377 7.10866 37.2968 7.72656C37.9559 8.33759 38.4811 9.14773 38.8725 10.157C39.2638 11.1662 39.4595 12.4089 39.4595 13.8849V14.9148H27.2663V12.8139H36.9879C36.9879 11.9214 36.8094 11.125 36.4524 10.4247C36.1022 9.72443 35.601 9.17176 34.9488 8.76669C34.3035 8.36162 33.5414 8.15909 32.6626 8.15909C31.6946 8.15909 30.857 8.39938 30.1498 8.87997C29.4495 9.35369 28.9106 9.97159 28.533 10.7337C28.1554 11.4957 27.9666 12.3127 27.9666 13.1847V14.5852C27.9666 15.7798 28.1725 16.7925 28.5845 17.6232C29.0033 18.4471 29.5834 19.0753 30.3249 19.5078C31.0664 19.9335 31.928 20.1463 32.9098 20.1463C33.5483 20.1463 34.125 20.0571 34.6399 19.8786C35.1617 19.6932 35.6113 19.4186 35.9889 19.0547C36.3666 18.6839 36.6583 18.224 36.8643 17.6747L39.2123 18.3338C38.9652 19.1302 38.5498 19.8305 37.9662 20.4347C37.3827 21.032 36.6618 21.4988 35.8036 21.8352C34.9454 22.1648 33.9808 22.3295 32.9098 22.3295ZM45.587 12.4844V22H43.1566V6.18182H45.5046V8.65341H45.7105C46.0813 7.85014 46.6443 7.20478 47.3995 6.71733C48.1547 6.22301 49.1296 5.97585 50.3242 5.97585C51.3952 5.97585 52.3323 6.19555 53.1356 6.63494C53.9389 7.06747 54.5636 7.72656 55.0099 8.61222C55.4562 9.491 55.6793 10.6032 55.6793 11.9489V22H53.2489V12.1136C53.2489 10.871 52.9262 9.90294 52.2809 9.20952C51.6355 8.50923 50.7498 8.15909 49.6239 8.15909C48.8481 8.15909 48.1547 8.3273 47.5436 8.66371C46.9395 9.00012 46.4623 9.491 46.1122 10.1364C45.762 10.7817 45.587 11.5644 45.587 12.4844ZM70.0892 15.5327V6.18182H72.5196V22H70.0892V19.3224H69.9244C69.5537 20.1257 68.977 20.8088 68.1943 21.3718C67.4116 21.9279 66.423 22.206 65.2284 22.206C64.2397 22.206 63.361 21.9897 62.592 21.5572C61.8231 21.1178 61.2189 20.4587 60.7795 19.5799C60.3401 18.6942 60.1204 17.5786 60.1204 16.233V6.18182H62.5508V16.0682C62.5508 17.2216 62.8735 18.1416 63.5189 18.8281C64.1711 19.5147 65.0018 19.858 66.0111 19.858C66.6152 19.858 67.2297 19.7035 67.8544 19.3945C68.4861 19.0856 69.0147 18.6119 69.4404 17.9734C69.8729 17.3349 70.0892 16.5213 70.0892 15.5327Z" fill="white"/>
</svg>
